<svg id="Grupo_50" data-name="Grupo 50" xmlns="http://www.w3.org/2000/svg" xmlns:xlink="http://www.w3.org/1999/xlink" width="168.66" height="65.765" viewBox="0 0 168.66 65.765">
  <defs>
    <clipPath id="clip-path">
      <rect id="Rectángulo_11" data-name="Rectángulo 11" width="168.66" height="65.765" fill="#fff"/>
    </clipPath>
  </defs>
  <g id="Grupo_1" data-name="Grupo 1" clip-path="url(#clip-path)">
    <path id="Trazado_7" data-name="Trazado 7" d="M26.9,16.968c.053,1.438.107,6.5.107,14.753s-.053,19.1-.107,20.538v0a11.952,11.952,0,0,1,1.623-.115,11.832,11.832,0,0,1,1.318.074c-.079-4.541-.118-13.4-.118-20.5,0-8.255.053-13.315.107-14.807.053-1.545.426-2.131,1.651-2.557l-.053-.266a24.884,24.884,0,0,1-3.036.16,25.827,25.827,0,0,1-3.089-.16l-.053.266c1.225.426,1.6,1.012,1.651,2.61" transform="translate(-15.254 -8.512)" fill="#fff"/>
    <path id="Trazado_8" data-name="Trazado 8" d="M74.51,49.191a25.835,25.835,0,0,0-3.089.16l-.053-.266c1.225-.426,1.6-1.012,1.651-2.61.053-1.438.106-6.5.106-14.753s-.053-13.315-.106-14.753c-.053-1.6-.426-2.184-1.651-2.61l.053-.266a25.827,25.827,0,0,0,3.089.16H92.8a23.913,23.913,0,0,0,.906,3.2l-.266.213C90.83,15.477,85.962,15.1,81.327,15.1c-1.758,0-3.568.053-5.379.16-.053,2.237-.107,8.2-.107,15.5,12.942,0,13.817-.32,14.456-1.7l.213.053a12.658,12.658,0,0,0-.159,2.077,13.33,13.33,0,0,0,.159,2.13l-.213.053c-.692-1.545-1.513-1.7-14.456-1.7,0,8.308.053,14.327.107,16.617,1.7.053,3.409.053,5.166.053,5.646,0,11.686-.373,14.829-2.77l.266.213a25.175,25.175,0,0,0-1.6,3.409Z" transform="translate(-43.111 -8.512)" fill="#fff"/>
    <path id="Trazado_9" data-name="Trazado 9" d="M153.551,48.958c-10.279,0-18.8-7.244-18.8-18.375,0-11.185,8.522-18.375,18.8-18.375,10.226,0,18.748,7.19,18.748,18.375,0,11.131-8.522,18.375-18.748,18.375m0-35.632c-8.735,0-15.766,6.5-15.766,17.257s7.031,17.256,15.766,17.256c8.681,0,15.765-6.5,15.765-17.256s-7.084-17.257-15.765-17.257" transform="translate(-81.397 -7.374)" fill="#fff"/>
    <path id="Trazado_10" data-name="Trazado 10" d="M302.083,13.079a17.146,17.146,0,0,1-2.4.161,17.455,17.455,0,0,1-2.45-.161l-.052.27a2.142,2.142,0,0,1,1.654,2.18c.1,1.867.318,6.872.318,15.181,0,2.146,0,3.974.013,5.567.013,2.594.031,4.574.035,6.311,0,.4,0,.792,0,1.171l0,0V48.5l.644.8h.588c-.161-3.464-.27-10.281-.27-18.589s.213-13.314.322-15.181a2.136,2.136,0,0,1,1.65-2.18Z" transform="translate(-179.516 -7.901)" fill="#fff"/>
    <path id="Trazado_11" data-name="Trazado 11" d="M238.434,44.2c-.1-1.767-.3-6.415-.318-13.941,0-.405,0-.814,0-1.236,0-8.044,0-11.56-.052-15.02l.057.07v-2.52h-.483c-.692,0-1.493-1.819-2.237-1.928l-.052.27c1.223.422,1.6,2.776,1.65,4.374.057,1.44.109,6.446.109,14.755s-.213,13.314-.322,15.177a2.146,2.146,0,0,1-1.649,2.185l.052.266a18.108,18.108,0,0,1,2.45-.157,17.887,17.887,0,0,1,2.4.157l.052-.266a2.145,2.145,0,0,1-1.649-2.185" transform="translate(-142.033 -5.815)" fill="#fff"/>
    <path id="Trazado_12" data-name="Trazado 12" d="M352.092,17.957c-3.143-2.077-6.445-2.61-12.09-2.61H338.83V31.965c0,8.255.053,13.315.107,14.753.053,1.6.426,2.184,1.651,2.61l-.053.266a25.228,25.228,0,0,0-3.09-.16,25.517,25.517,0,0,0-3.036.16l-.053-.266c1.225-.426,1.6-1.012,1.651-2.61.053-1.438.106-6.5.106-14.753V15.347h-1.225c-5.646,0-8.948.533-12.037,2.61l-.266-.213a22.323,22.323,0,0,0,.852-3.249h28.015a22.6,22.6,0,0,0,.905,3.249Z" transform="translate(-194.861 -8.756)" fill="#fff"/>
    <path id="Trazado_13" data-name="Trazado 13" d="M416.414,55.04a24.9,24.9,0,0,0-3.036-.16,25.839,25.839,0,0,0-3.089.16l-.053-.266c1.225-.426,1.6-1.012,1.651-2.61.053-1.438.107-12.187.107-20.442s-.053-13.315-.107-14.753c-.053-1.6-.426-2.184-1.651-2.61l.053-.266a25.832,25.832,0,0,0,3.089.16,24.889,24.889,0,0,0,3.036-.16l.053.266c-1.225.426-1.6,1.012-1.651,2.557-.053,1.491-.106,6.551-.106,14.807s.053,19,.106,20.442c.053,1.6.426,2.184,1.651,2.61Z" transform="translate(-247.807 -8.512)" fill="#fff"/>
    <path id="Trazado_14" data-name="Trazado 14" d="M222.052,0c19.408,6.792,29.79,47.329,48.92,54.039a18.061,18.061,0,0,0,10.3.318,17.015,17.015,0,0,1-10.658.913c-13.02-3.408-21.978-20.324-28.706-31.071-5.11-8.175-11.2-19.614-19.856-24.2" transform="translate(-134.133 0.001)" fill="#fff"/>
    <path id="Trazado_15" data-name="Trazado 15" d="M0,114.573c3.632-4.677,9.322-7.648,15.371-6.943,8.692.915,15.956,6.243,24,9.013,8.725,3.226,15.9,1.6,23.092-4.122-9.405,10.749-20.274,8.929-31.887,3.2C19.586,110.4,10.694,105.311,0,114.573" transform="translate(0 -64.953)" fill="#fff"/>
    <path id="Trazado_16" data-name="Trazado 16" d="M197.093,154.447h-2.4v-.379a1.1,1.1,0,0,0,.491-.1.926.926,0,0,0,.357-.379,6.91,6.91,0,0,0,.4-.864l2.385-5.663h.68l2.564,5.986a2.689,2.689,0,0,0,.479.78.889.889,0,0,0,.658.234v.379h-3.177v-.379a2.547,2.547,0,0,0,.329-.022.629.629,0,0,0,.289-.106.313.313,0,0,0,.117-.273,1.2,1.2,0,0,0-.05-.306,3.785,3.785,0,0,0-.15-.429l-.435-1.014-.078-.245-1.2-3.132h-.034l-1.259,3.132-.089.245-.491,1.181c-.03.09-.06.183-.089.279a1.022,1.022,0,0,0-.045.3.3.3,0,0,0,.178.318,1.616,1.616,0,0,0,.569.072Zm2.731-2.408h-3.032l.179-.491h2.675Z" transform="translate(-117.608 -88.837)" fill="#fff"/>
    <path id="Trazado_17" data-name="Trazado 17" d="M231.526,154.532H225.44v-.379a2.664,2.664,0,0,0,.652-.061.455.455,0,0,0,.318-.268,1.724,1.724,0,0,0,.09-.641v-4.57a2.059,2.059,0,0,0-.078-.646.467.467,0,0,0-.3-.3,2.205,2.205,0,0,0-.68-.078v-.379h5.975l.067,1.884h-.423a2.617,2.617,0,0,0-.228-.819.8.8,0,0,0-.5-.39,3.75,3.75,0,0,0-1.02-.106h-1.583v2.742h1.2a3.015,3.015,0,0,0,.8-.078.506.506,0,0,0,.351-.306,1.943,1.943,0,0,0,.089-.675h.412v2.586h-.412a1.922,1.922,0,0,0-.089-.685.48.48,0,0,0-.351-.285,3.5,3.5,0,0,0-.8-.067h-1.2v2.977h1.4a6.006,6.006,0,0,0,1-.067,1.411,1.411,0,0,0,.607-.234,1.293,1.293,0,0,0,.374-.474,6.2,6.2,0,0,0,.306-.786h.412Z" transform="translate(-136.179 -88.923)" fill="#fff"/>
    <path id="Trazado_18" data-name="Trazado 18" d="M253.126,154.484h-.39l-.1-2.408h.412a4.008,4.008,0,0,0,.446,1.159,1.321,1.321,0,0,0,.624.546,2.443,2.443,0,0,0,.892.145,2.062,2.062,0,0,0,.708-.112,1,1,0,0,0,.485-.356,1.076,1.076,0,0,0,.179-.647,1.245,1.245,0,0,0-.257-.808,2.385,2.385,0,0,0-.668-.557q-.413-.239-.859-.485-.468-.257-.892-.541a2.353,2.353,0,0,1-.685-.7,1.875,1.875,0,0,1-.262-1.026,1.649,1.649,0,0,1,.3-1,1.867,1.867,0,0,1,.8-.613,3.36,3.36,0,0,1,1.9-.134,2.575,2.575,0,0,1,.446.162.682.682,0,0,0,.3.083.343.343,0,0,0,.212-.066.417.417,0,0,0,.134-.234h.335l.067,2.263h-.39a3.157,3.157,0,0,0-.63-1.388,1.492,1.492,0,0,0-1.176-.418,1.392,1.392,0,0,0-.887.245.885.885,0,0,0-.306.736,1.083,1.083,0,0,0,.234.7,2.2,2.2,0,0,0,.619.513q.384.223.808.457.368.2.742.413a3.975,3.975,0,0,1,.68.485,2.112,2.112,0,0,1,.491.647,1.963,1.963,0,0,1,.184.875,1.847,1.847,0,0,1-1.176,1.806,3.187,3.187,0,0,1-1.254.234,3.966,3.966,0,0,1-.908-.083,3.326,3.326,0,0,1-.53-.167.815.815,0,0,0-.312-.084.257.257,0,0,0-.206.1.433.433,0,0,0-.095.256" transform="translate(-152.607 -88.718)" fill="#fff"/>
    <path id="Trazado_19" data-name="Trazado 19" d="M280.556,154.532h-3.422v-.379a2.542,2.542,0,0,0,.708-.072.455.455,0,0,0,.306-.312,2.589,2.589,0,0,0,.078-.741v-5.284h-.647a2.416,2.416,0,0,0-.919.134.821.821,0,0,0-.44.462,5.477,5.477,0,0,0-.256.942h-.413l.123-2.073h6.365l.089,2.073h-.413a5.444,5.444,0,0,0-.256-.942.821.821,0,0,0-.435-.462,2.409,2.409,0,0,0-.925-.134h-.635v5.284a2.753,2.753,0,0,0,.073.741.441.441,0,0,0,.306.312,2.6,2.6,0,0,0,.713.072Z" transform="translate(-166.449 -88.923)" fill="#fff"/>
    <path id="Trazado_20" data-name="Trazado 20" d="M306.3,154.532h-3.355v-.379a2.53,2.53,0,0,0,.714-.072.415.415,0,0,0,.284-.318,3.263,3.263,0,0,0,.062-.736v-4.3a3.69,3.69,0,0,0-.05-.686.462.462,0,0,0-.279-.351,1.954,1.954,0,0,0-.73-.1v-.379h3.366v.379a1.994,1.994,0,0,0-.741.1.474.474,0,0,0-.284.351,3.276,3.276,0,0,0-.056.686v1.817h3.523v-1.817a3.31,3.31,0,0,0-.056-.686.475.475,0,0,0-.284-.351,1.954,1.954,0,0,0-.73-.1v-.379h3.377v.379a2.035,2.035,0,0,0-.752.1.459.459,0,0,0-.278.346,3.637,3.637,0,0,0-.05.691v4.3a3.179,3.179,0,0,0,.061.725.428.428,0,0,0,.3.323,2.461,2.461,0,0,0,.724.078v.379h-3.377v-.379a2.453,2.453,0,0,0,.73-.078.415.415,0,0,0,.284-.323,3.5,3.5,0,0,0,.056-.725v-2H305.23v2a3.145,3.145,0,0,0,.062.73.425.425,0,0,0,.29.318,2.4,2.4,0,0,0,.719.078Z" transform="translate(-182.997 -88.923)" fill="#fff"/>
    <path id="Trazado_21" data-name="Trazado 21" d="M340.816,154.532H334.73v-.379a2.663,2.663,0,0,0,.652-.061.455.455,0,0,0,.318-.268,1.724,1.724,0,0,0,.089-.641v-4.57a2.057,2.057,0,0,0-.078-.646.467.467,0,0,0-.3-.3,2.205,2.205,0,0,0-.68-.078v-.379H340.7l.066,1.884h-.423a2.617,2.617,0,0,0-.228-.819.8.8,0,0,0-.5-.39,3.75,3.75,0,0,0-1.02-.106h-1.583v2.742h1.2a3.015,3.015,0,0,0,.8-.078.506.506,0,0,0,.351-.306,1.943,1.943,0,0,0,.089-.675h.412v2.586h-.412a1.923,1.923,0,0,0-.089-.685.48.48,0,0,0-.351-.285,3.5,3.5,0,0,0-.8-.067h-1.2v2.977h1.4a6.006,6.006,0,0,0,1-.067,1.411,1.411,0,0,0,.607-.234,1.292,1.292,0,0,0,.374-.474,6.18,6.18,0,0,0,.307-.786h.412Z" transform="translate(-202.197 -88.923)" fill="#fff"/>
    <path id="Trazado_22" data-name="Trazado 22" d="M365.973,154.532h-3.422v-.379a2.536,2.536,0,0,0,.708-.072.456.456,0,0,0,.307-.312,2.586,2.586,0,0,0,.078-.741v-5.284H363a2.413,2.413,0,0,0-.919.134.818.818,0,0,0-.44.462,5.441,5.441,0,0,0-.257.942h-.413l.123-2.073h6.365l.089,2.073h-.413a5.434,5.434,0,0,0-.257-.942.821.821,0,0,0-.434-.462,2.409,2.409,0,0,0-.926-.134h-.635v5.284a2.755,2.755,0,0,0,.072.741.441.441,0,0,0,.307.312,2.594,2.594,0,0,0,.713.072Z" transform="translate(-218.047 -88.923)" fill="#fff"/>
    <path id="Trazado_23" data-name="Trazado 23" d="M391.671,154.532H388.3v-.379a2.292,2.292,0,0,0,.73-.084.441.441,0,0,0,.29-.323,3.13,3.13,0,0,0,.061-.719v-4.3a3.274,3.274,0,0,0-.056-.686.475.475,0,0,0-.278-.351,1.991,1.991,0,0,0-.747-.1v-.379h3.377v.379a1.994,1.994,0,0,0-.741.1.461.461,0,0,0-.279.351,3.68,3.68,0,0,0-.05.686v4.3a3.06,3.06,0,0,0,.062.719.439.439,0,0,0,.29.323,2.191,2.191,0,0,0,.707.084Z" transform="translate(-234.56 -88.923)" fill="#fff"/>
    <path id="Trazado_24" data-name="Trazado 24" d="M412,154.45a3.631,3.631,0,0,1-1.951-.485,3.012,3.012,0,0,1-1.17-1.337,4.6,4.6,0,0,1-.39-1.934,4.242,4.242,0,0,1,.474-2.09,3.156,3.156,0,0,1,1.31-1.293,4.053,4.053,0,0,1,1.917-.44,3.739,3.739,0,0,1,.942.1,3.225,3.225,0,0,1,.557.195.834.834,0,0,0,.351.1.235.235,0,0,0,.222-.118c.045-.078.093-.169.145-.273h.378v2.608h-.423a2.717,2.717,0,0,0-.752-1.583,2.245,2.245,0,0,0-3.172.318,3.883,3.883,0,0,0-.6,2.313,4.331,4.331,0,0,0,.312,1.778,2.122,2.122,0,0,0,.887,1.008,2.708,2.708,0,0,0,1.354.323,2.889,2.889,0,0,0,1.349-.29,3.857,3.857,0,0,0,1.036-.8l.29.257a4.846,4.846,0,0,1-.735.841,3.088,3.088,0,0,1-.981.591,3.767,3.767,0,0,1-1.349.217" transform="translate(-246.753 -88.718)" fill="#fff"/>
  </g>
</svg>
