<svg width="27" height="27" viewBox="0 0 27 27" fill="none" xmlns="http://www.w3.org/2000/svg">
<path d="M13.5 0C6.075 0 0 6.075 0 13.5C0 20.925 6.075 27 13.5 27C20.925 27 27 20.925 27 13.5C27 6.075 20.925 0 13.5 0ZM13.5 24.3C7.56 24.3 2.7 19.44 2.7 13.5C2.7 7.56 7.56 2.7 13.5 2.7C19.44 2.7 24.3 7.56 24.3 13.5C24.3 19.44 19.44 24.3 13.5 24.3Z" fill="#FF0000"/>
<path d="M13.4984 18.9017C12.6884 18.9017 12.1484 19.5767 12.1484 20.2517C12.1484 21.0617 12.8234 21.6017 13.4984 21.6017C14.1734 21.6017 14.8484 20.9267 14.8484 20.2517C14.8484 19.4417 14.3084 18.9017 13.4984 18.9017Z" fill="#FF0000"/>
<path d="M14.8484 16.2006V6.75058C14.8484 4.99558 12.1484 4.99558 12.1484 6.75058V16.2006C12.1484 17.9556 14.8484 17.9556 14.8484 16.2006Z" fill="#FF0000"/>
</svg>
