<svg xmlns="http://www.w3.org/2000/svg" width="9.213" height="7.754" viewBox="0 0 9.213 7.754">
  <g id="Grupo_104" data-name="Grupo 104" transform="translate(-2.891 7.754) rotate(-90)">
    <path id="Trazado_42" data-name="Trazado 42" d="M73.19,7.96l-.713-.713a.378.378,0,0,0-.534,0L70.305,8.885V3.269a.378.378,0,0,0-.378-.378H68.92a.378.378,0,0,0-.378.378V8.885L66.9,7.247a.378.378,0,0,0-.534,0l-.713.713a.378.378,0,0,0,0,.534l3.5,3.5a.378.378,0,0,0,.534,0l3.5-3.5a.378.378,0,0,0,0-.534Z" transform="translate(-65.547)" fill="#585149"/>
  </g>
</svg>
