<svg width="10" height="9" viewBox="0 0 10 9" fill="none" xmlns="http://www.w3.org/2000/svg">
<path d="M5.16959 0.733948L4.45659 1.44695C4.38587 1.51782 4.34616 1.61384 4.34616 1.71395C4.34616 1.81406 4.38587 1.91008 4.45659 1.98095L6.09459 3.61895H0.478586C0.378334 3.61895 0.282188 3.65877 0.2113 3.72966C0.140411 3.80055 0.100586 3.8967 0.100586 3.99695L0.100586 5.00395C0.100586 5.1042 0.140411 5.20035 0.2113 5.27124C0.282188 5.34213 0.378334 5.38195 0.478586 5.38195H6.09459L4.45659 7.02395C4.38587 7.09481 4.34616 7.19084 4.34616 7.29095C4.34616 7.39106 4.38587 7.48709 4.45659 7.55795L5.16959 8.27095C5.24045 8.34166 5.33647 8.38138 5.43659 8.38138C5.5367 8.38138 5.63272 8.34166 5.70359 8.27095L9.20359 4.77095C9.2743 4.70008 9.31401 4.60406 9.31401 4.50395C9.31401 4.40384 9.2743 4.30782 9.20359 4.23695L5.70359 0.736954C5.63272 0.66624 5.5367 0.626526 5.43659 0.626526C5.33647 0.626526 5.24045 0.66624 5.16959 0.736954V0.733948Z" fill="#FFFBF8"/>
</svg>
