<svg id="Capa_1" enable-background="new 0 0 512 512" height="512" viewBox="0 0 512 512" width="512" xmlns="http://www.w3.org/2000/svg"><g id="Mail"><g><path d="m412 456h-312c-55.14 0-100-44.86-100-100v-200c0-55.14 44.86-100 100-100h312c55.14 0 100 44.86 100 100v200c0 55.14-44.86 100-100 100zm-312-360c-33.084 0-60 26.916-60 60v200c0 33.084 26.916 60 60 60h312c33.084 0 60-26.916 60-60v-200c0-33.084-26.916-60-60-60z"/></g><path d="m343.312 255.57 83.047-85.648c7.689-7.93 7.494-20.592-.436-28.281s-20.591-7.494-28.281.436l-127.59 131.586c-7.775 7.678-20.327 7.678-28.103 0l-127.59-131.586c-7.688-7.93-20.35-8.125-28.281-.436-7.93 7.689-8.125 20.351-.436 28.281l83.047 85.648-83.116 86.579c-7.649 7.968-7.391 20.629.577 28.278 7.966 7.647 20.627 7.393 28.278-.577l82.123-85.545 16.806 17.333c.071.074.144.147.216.22 11.697 11.697 27.062 17.545 42.426 17.545s30.729-5.848 42.426-17.545c.073-.073.145-.146.216-.22l16.806-17.333 82.123 85.545c7.646 7.965 20.308 8.23 28.278.577 7.968-7.649 8.227-20.31.577-28.278z"/></g></svg>