<svg width="11" height="10" viewBox="0 0 11 10" fill="none" xmlns="http://www.w3.org/2000/svg">
<path d="M5.48266 0.650113L6.45602 3.26625C6.52115 3.43994 6.68398 3.55935 6.86852 3.56658L9.65835 3.68238C10.0853 3.70047 10.259 4.23961 9.92611 4.50376L7.73695 6.237C7.59221 6.35279 7.5307 6.54457 7.57774 6.72187L8.33038 9.41038C8.44617 9.82288 7.98662 10.1558 7.63202 9.91697L5.30535 8.37189C5.14976 8.27057 4.95074 8.27057 4.79515 8.37189L2.46849 9.91697C2.11388 10.1522 1.65433 9.81927 1.77012 9.41038L2.52276 6.72187C2.57342 6.54457 2.51191 6.35279 2.36355 6.237L0.174389 4.50376C-0.158508 4.23961 0.0151767 3.70047 0.442154 3.68238L3.23198 3.56658C3.41652 3.55935 3.57935 3.43994 3.64448 3.26625L4.61785 0.650113C4.7662 0.248465 5.3343 0.248465 5.48266 0.650113Z" fill="#F7BD61"/>
</svg>
