<svg width="84" height="54" viewBox="0 0 84 54" fill="none" xmlns="http://www.w3.org/2000/svg">
<path d="M0.0352335 53.5039C0.00671115 53.4913 0 53.4645 0 53.425V52.9693C0 52.9425 0.0201334 52.9299 0.0486558 52.9504C0.395958 53.1711 0.810371 53.2626 1.17781 53.2626C1.82208 53.2626 2.11401 52.9819 2.11401 52.5924C2.11401 52.2865 1.9412 52.0578 1.31706 51.785L1.03352 51.6604C0.223146 51.3088 0.0285224 50.9114 0.0285224 50.4746C0.0285224 49.8044 0.562059 49.3281 1.46974 49.3281C1.89254 49.3281 2.24656 49.3928 2.4395 49.4969C2.46803 49.5095 2.47474 49.53 2.47474 49.5615V49.992C2.47474 50.0188 2.4546 50.0378 2.42608 50.0188C2.19119 49.8753 1.83047 49.8107 1.46303 49.8107C0.763393 49.8107 0.575481 50.1686 0.575481 50.4288C0.575481 50.7285 0.748293 50.9492 1.34391 51.2047L1.61403 51.3214C2.44621 51.6731 2.6811 52.0704 2.6811 52.5451C2.6811 53.2421 2.13415 53.7373 1.16271 53.7373C0.704671 53.7373 0.30368 53.6521 0.0335558 53.5023L0.0352335 53.5039Z" fill="black"/>
<path d="M11.664 53.6349C11.664 53.6681 11.6506 53.6807 11.6153 53.6807H11.1439C11.1086 53.6807 11.0952 53.6681 11.0952 53.6286V49.4339C11.0952 49.4071 11.1019 49.3945 11.1439 49.3945H11.622C11.6506 49.3945 11.664 49.4071 11.664 49.4403V53.6349ZM11.6908 51.5628C11.6556 51.5297 11.6556 51.5045 11.6908 51.4714L13.6455 49.4261C13.6656 49.4071 13.6807 49.3929 13.7142 49.3929H14.2478C14.2897 49.3929 14.2964 49.4261 14.2763 49.4513L12.3351 51.4319C12.3217 51.4509 12.3217 51.4651 12.3351 51.484L14.4273 53.6207C14.4474 53.6476 14.434 53.6791 14.3988 53.6791H13.8166C13.7746 53.6791 13.7545 53.6728 13.726 53.6397L11.6892 51.5612L11.6908 51.5628Z" fill="black"/>
<path d="M23.016 53.6349C23.016 53.6681 23.0026 53.6807 22.9674 53.6807H22.4959C22.4607 53.6807 22.4473 53.6681 22.4473 53.6349V49.4403C22.4473 49.4071 22.4607 49.3945 22.4959 49.3945H22.9741C23.0026 49.3945 23.016 49.4071 23.016 49.434V53.6349Z" fill="black"/>
<path d="M31.7761 53.6807C31.7408 53.6807 31.7207 53.6744 31.7207 53.6349V49.434C31.7207 49.4071 31.7341 49.3945 31.7626 49.3945H32.4271C32.4623 49.3945 32.4757 49.4071 32.4891 49.434C33.0646 50.3849 34.333 52.5153 34.5813 52.9963H34.588C34.5813 52.8275 34.5679 52.5342 34.5679 52.006V49.4403C34.5679 49.4071 34.5813 49.3945 34.6166 49.3945H35.0595C35.0947 49.3945 35.1082 49.4135 35.1082 49.4403V53.6349C35.1082 53.6681 35.0947 53.6807 35.0528 53.6807H34.4505C34.4085 53.6807 34.3884 53.6744 34.375 53.6413C34.0696 53.0751 32.4489 50.4306 32.2341 49.9417H32.2274C32.2475 50.1893 32.2559 50.5473 32.2559 51.0945V53.6349C32.2559 53.6681 32.2492 53.6807 32.214 53.6807H31.7777H31.7761Z" fill="black"/>
<path d="M46.683 53.5622C46.683 53.5953 46.6696 53.6206 46.6411 53.6269C46.4331 53.712 46.1277 53.7373 45.767 53.7373C44.658 53.7373 43.5288 53.1191 43.5288 51.5295C43.5288 50.227 44.4499 49.3281 45.8576 49.3281C46.2804 49.3281 46.5438 49.3739 46.6898 49.4385C46.7099 49.4448 46.725 49.4653 46.725 49.4969V49.9132C46.725 49.9589 46.6965 49.9589 46.6763 49.9463C46.4968 49.8611 46.2049 49.8091 45.8442 49.8091C44.8106 49.8091 44.1043 50.4667 44.1043 51.509C44.1043 52.8841 45.1361 53.2547 45.8223 53.2547C46.1545 53.2547 46.3978 53.2279 46.6394 53.1443C46.6596 53.138 46.6814 53.138 46.6814 53.1712V53.5622H46.683Z" fill="black"/>
<path d="M55.7746 52.3198L55.3031 53.6413C55.2897 53.6681 55.2746 53.6807 55.2477 53.6807H54.7897C54.7545 53.6807 54.7411 53.6681 54.7478 53.6286L56.189 49.6878C56.2091 49.6358 56.2242 49.5901 56.2309 49.4276C56.2309 49.4087 56.2443 49.3945 56.2662 49.3945H56.9322C56.9608 49.3945 56.9675 49.4008 56.9742 49.4276L58.5261 53.6349C58.5329 53.6618 58.5261 53.6807 58.4976 53.6807H57.9842C57.9557 53.6807 57.9423 53.6681 57.9288 53.6476L57.4507 52.3182H55.7729L55.7746 52.3198ZM57.2997 51.8372C57.1537 51.4004 56.7376 50.2808 56.6135 49.8313H56.6068C56.496 50.254 56.1772 51.115 55.9272 51.8372H57.2997Z" fill="black"/>
<path d="M66.7811 53.6806C66.7458 53.6806 66.7324 53.6743 66.7324 53.6412V49.4528C66.7324 49.426 66.7458 49.4008 66.7744 49.4008C67.1284 49.3945 67.4807 49.3818 67.932 49.3818C68.9169 49.3818 69.5746 49.7918 69.5746 50.6134C69.5746 51.2253 69.1451 51.6038 68.6451 51.7599C68.8733 52.0532 69.7743 53.3431 69.9487 53.6301C69.9689 53.6569 69.9622 53.6822 69.9353 53.6822H69.3666C69.3246 53.6822 69.3112 53.6759 69.2978 53.6491C69.0897 53.3494 68.536 52.5152 68.1887 52.0075C68.1401 51.9349 68.1049 51.9034 68.0361 51.9034H67.2878V53.6428C67.2878 53.6696 67.2811 53.6822 67.2458 53.6822H66.7811V53.6806ZM67.9874 51.4398C68.6384 51.4398 69.0058 51.107 69.0058 50.6387C69.0058 50.1435 68.625 49.8502 67.9102 49.8502C67.6602 49.8502 67.4186 49.8628 67.2861 49.8691V51.4398H67.9857H67.9874Z" fill="black"/>
<path d="M80.7518 53.6413C80.7451 53.6744 80.7317 53.6807 80.6964 53.6807H78.173C78.1311 53.6807 78.1177 53.6681 78.1177 53.6286V49.4403C78.1177 49.4071 78.1311 49.3945 78.1663 49.3945H80.5924C80.6276 49.3945 80.6411 49.4008 80.6478 49.434L80.6964 49.8377C80.7031 49.8645 80.6964 49.8771 80.6612 49.8771H78.6864V51.2443H80.4683C80.4968 51.2443 80.5102 51.2569 80.5102 51.2837V51.6874C80.5102 51.7205 80.4901 51.7268 80.4615 51.7268H78.6881V53.1981H80.7887C80.8239 53.1981 80.8307 53.2044 80.8239 53.2376L80.7552 53.6413H80.7518Z" fill="black"/>
<path d="M15.8835 35.3784C16.3064 35.8263 14.7729 37.0263 14.4574 37.2613C11.7646 39.2782 6.05171 41.5538 2.61225 41.0003C-0.659437 40.4736 0.531792 36.0581 1.31196 34.0364C3.12062 29.3513 7.71272 24.4612 11.9793 21.5691C14.5615 19.8203 21.1099 16.3257 24.202 17.5794C28.4183 19.2888 20.9589 25.185 19.6938 22.4427C19.0764 21.107 21.0629 19.4859 20.6703 19.0129C18.162 18.2102 15.4557 20.2681 13.8786 21.9349C11.3988 24.559 6.68256 33.6343 7.00134 37.0326C7.25637 39.7608 11.2663 38.0182 12.8149 37.2865L15.8835 35.3737V35.3784Z" fill="black"/>
<path d="M33.329 12.1878C33.2048 12.4985 33.0807 12.8407 33.0052 13.0125C32.8978 13.2617 32.7887 13.5124 32.6797 13.7632L33.329 12.1878Z" fill="black"/>
<path d="M72.2937 30.7217C72.1243 31.2326 65.5155 33.9418 64.5289 34.2809C60.108 35.7995 55.5494 36.7031 52.0563 33.0934C46.3786 27.2288 41.4308 20.1057 35.9411 13.8641L35.9327 13.8547L33.765 11.4687L33.6694 11.3615L33.4362 11.9276L33.3288 12.1878L32.6795 13.7632L32.6661 13.7963H32.6644C30.4782 18.8599 28.23 24.2546 26.3073 29.364C25.3895 31.8019 23.6496 35.7033 28.2753 35.2207L28.2669 36.1575L17.0559 38.2091C17.0878 37.9883 16.9754 37.6193 17.0845 37.4474C17.1398 37.3591 18.6616 36.8135 19.0542 36.547C20.5189 35.5472 21.6464 33.3552 22.3913 31.8177C25.5825 25.2324 27.7082 17.879 30.7383 11.1959C31.4883 9.32883 29.0404 8.94247 27.6059 9.27679L27.6126 8.34008L38.3169 6.36416L52.8046 23.8967L58.0829 9.98799C58.5493 8.072 60.8093 4.91968 57.999 3.77166C57.1534 3.42631 56.2038 3.72751 56.645 2.66307C56.645 2.66307 69.3677 0.00748434 69.3844 0.00117655C69.5321 -0.0287855 69.3324 0.523146 69.314 0.557839C68.9046 1.28008 67.7788 1.40466 67.0708 1.7437C66.1581 2.18367 65.3578 2.81603 64.6883 3.54143C63.0793 5.28868 62.2438 7.46803 61.368 9.58902C60.7036 11.1928 59.9838 12.7887 59.2842 14.3829C57.905 17.5274 56.5058 20.6844 55.5645 23.9739C52.9052 33.2748 64.893 33.3221 71.1445 30.7422C71.4196 30.6287 72.0068 30.1919 72.0622 30.1903C72.2015 30.1887 72.3642 30.5104 72.2937 30.7201V30.7217Z" fill="black"/>
<path d="M65.9921 26.5317C67.1096 27.5031 70.4215 26.1154 71.5876 25.4988C72.4382 25.0494 73.0607 24.4833 73.8123 23.9708C74.7066 23.3621 74.6177 23.9834 74.1546 24.6063C72.5187 26.803 65.8378 29.2456 63.0258 29.4081C57.7727 29.7124 58.583 25.5698 59.9169 22.244C62.6366 15.4678 71.0708 7.97576 78.547 6.08973C79.9933 5.72546 83.4244 4.9701 83.9428 6.95075C84.072 7.44275 83.968 7.96472 83.7767 8.43781C83.4965 9.13167 83.0334 9.73248 82.4378 10.215C78.9967 13.0062 76.6998 10.86 79.3322 7.48375C78.7282 6.78832 77.7887 7.11948 77.0018 7.31187C71.9131 8.55923 68.3562 16.0781 66.7824 20.358C66.3126 21.6369 64.8211 25.5146 65.9905 26.5301L65.9921 26.5317Z" fill="black"/>
</svg>
