<?xml version="1.0" encoding="UTF-8"?>
<svg id="Capa_1" data-name="Capa 1" xmlns="http://www.w3.org/2000/svg" viewBox="0 0 1133.77 247.48">
  <defs>
    <style>
      .cls-1 {
        fill: #05426b;
      }
    </style>
  </defs>
  <g>
    <g>
      <path class="cls-1" d="M756.95,75.82h-47.46c-.11,0-1.5-1.39-1.5-1.5v-16.99c0-4.49-11.31-10.46-15.21-11.77-15.06-5.05-55.29-5.63-57.73,15.77-1.71,14.94-1.18,46.57-.04,61.99,1.69,22.81,38.56,23.23,55,18.94,4.44-1.16,17.98-7.88,17.98-12.99v-17.49h48.96v16.49c0,4.91-6.16,15.55-9.48,19.5-32.05,38.11-156.11,36.12-160.42-21.45-1.32-17.56-1.49-48.6,0-66.02,4.57-53.03,101.91-53.36,138.28-37.29,12.73,5.63,31.62,21.15,31.62,36.33v16.49Z"/>
      <path class="cls-1" d="M382.27,75.82h-47.96v-14.49c0-1.43-2.83-7.37-3.98-8.72-10.23-12.03-41.54-11.68-55.23-6.52-8.76,3.3-13.89,7.35-14.77,17.2-1.33,14.94-1.45,46.16.05,60.98,2.39,23.63,47.24,22.99,62.97,15.04,2.24-1.13,9.95-6.93,9.95-9.03v-18.48h48.96v17.49c0,7.72-10.63,20.66-16.52,25.45-35.78,29.12-149.3,28.2-153.39-30.4-1.21-17.3-1.46-46.91,0-64.03C217.42,1.68,350.97-.57,377.08,44.54c1.44,2.49,5.19,11.37,5.19,13.8v17.49Z"/>
      <g>
        <path class="cls-1" d="M55.04,99.8l17.47,29.49,32.98.99,23.99,41.45c-4.31-1.27-8.82-.08-12.49-.18-1.59-.05-3.19-.82-4.95-.85-20.92-.39-42.04-.05-62.83.88L7.58,99.8h47.46Z"/>
        <path class="cls-1" d="M143.45,23.86c11.72,22.85,25.54,44.8,38.21,67.22l.78,3.16-38.15,66.83-2.82,2.66-22.78-41.63,15.7-28.82-15.74-28.14,24.78-41.29Z"/>
        <path class="cls-1" d="M129.48,15.87l-23.96,41.48-32.99.98c-5.6,8.4-11.02,17.24-14.98,26.48H9.58c12.1-23.44,26-46.18,39.47-68.94h80.43Z"/>
      </g>
      <g>
        <polygon class="cls-1" points="569.11 170.74 518.65 170.74 442.04 67.5 439.22 65.82 439.22 170.74 398.25 170.74 398.25 15.87 448.71 15.87 569.11 170.74"/>
        <polygon class="cls-1" points="569.11 15.87 569.11 144.76 528.15 93.3 528.15 15.87 569.11 15.87"/>
      </g>
      <path class="cls-1" d="M879.85,95.8v28.98h32.47c.11,0,1.5-1.39,1.5-1.5v-27.48h23.98v74.94h-24.98c-.27-.73,1-1.19,1-1.5v-25.98c0-.11-1.39-1.5-1.5-1.5h-32.47v28.98h-24.98c-.37-1.08,1-2.19,1-2.5v-72.44h23.98Z"/>
      <path class="cls-1" d="M983.56,95.09c18.11-1.84,49.83,1.01,52.15,24.2,1.11,11.08,1.74,34.66-5.99,42.95-15.63,16.75-75.34,16.49-77.97-12.94-.66-7.35-.84-32.37,1.83-38.22,4.43-9.73,20.01-14.97,29.98-15.98ZM988.52,109.05c-4.35.59-11.44,2.54-12.53,7.45-2.12,9.51.96,25.33,0,35.55,2.71,9.27,33.17,9.65,35.55-1.01.7-3.15.79-31.94,0-34.55-2.2-7.38-16.83-8.27-23.02-7.44Z"/>
      <path class="cls-1" d="M1071.69,151.75v18.98h-23.98v-74.94h45.46c8.32,0,22.98,6.05,27.91,13.05,15.31,21.73-6.6,42.9-28.91,42.9h-20.48ZM1071.69,134.77h20.48c4.48,0,9.61-6.77,9.44-11.4-.16-4.26-5.3-10.58-9.44-10.58h-20.48v21.98Z"/>
      <path class="cls-1" d="M832.88,116.78c-8.49-3.98-17.99-6.86-27.5-6.03-5.26.46-13.75,3.12-9.51,9.6,5.34,8.18,45.06,2.82,47.77,25.18,4.04,33.21-55.92,30.9-74.69,19.19l8.49-15.94c9.06,6.12,30.72,11.12,40.2,5.29,4.3-2.64,2.41-6.77-1.73-8.81-11.72-5.8-41.21-4.14-44.74-21.21-6.93-33.58,49.96-34.44,68.68-22.69l-6.98,15.43Z"/>
    </g>
    <g>
      <path class="cls-1" d="M546.13,204.71c1.39.21,3.77-.49,4.84.16.91.56,8.57,16.42,10.16,18.82,1.49,1.01,10.15-16.88,11.49-17.97,1.78-1.46,3.43-1.06,5.49-1.01v28.98h-5v-18.98c-3.85,1.96-7.77,15.06-11.5,15.05-2.87,0-7.31-12.34-10.48-14.05v17.99h-5v-28.98Z"/>
      <path class="cls-1" d="M466.2,204.71l4.79.22,15.2,18.76v-18.98h5v28.98c-1.78.19-3.03.07-4.56-.93-4.03-2.63-10.16-14.72-14.93-18.04-3.06-.26-.49,1.08-.49,1.49v17.49h-5v-28.98Z"/>
      <path class="cls-1" d="M286.35,233.68v-28.98h18.48c1.37,0,6.91,4.49,7.94,6.04,4.99,7.52,2.5,17.4-5.76,21.12-.76.34-4.89,1.82-5.18,1.82h-15.49ZM291.34,208.71v19.48c0,2.92,13.94,2.03,17.18-3.79,6.62-11.88-6.82-18.08-17.18-15.69Z"/>
      <path class="cls-1" d="M261.15,203.94c21.19-2.28,23.9,26.27,6.48,29.51-23.87,4.44-26.53-27.35-6.48-29.51ZM274.1,219.02c0-5.88-4.77-10.65-10.65-10.65s-10.65,4.77-10.65,10.65,4.77,10.65,10.65,10.65,10.65-4.77,10.65-10.65Z"/>
      <path class="cls-1" d="M637.55,204.71c5.63,1.21,7.95,9.65,5.74,14.74-.99,2.29-5.21,4.16-5.23,4.74s6.51,7.7,6.98,9.49c-10.32,1.94-7.75-12.5-19.99-8.99v9s-4.99,0-4.99,0v-28.98c5.09.74,12.8-1.01,17.49,0ZM625.06,220.7c19.02,3.04,19.23-15.24,0-12v12Z"/>
      <path class="cls-1" d="M657.04,204.71v13.99c2.36.63,1.69-.6,2.29-1.28,4.46-5.04,10.49-14.03,17.7-12.7-1.47,2.87-11.37,10.52-10.88,13.33l11.88,15.63c-6.62,3.65-12.71-11.33-15.59-11.94-3.83-.81-6.9,9.1-5.38,11.95h-5v-28.98h5Z"/>
      <path class="cls-1" d="M757.45,204.71c8.87,1.77,10.18,16.33.34,19.32-8.05,2.45-14.65-3.73-12.82,9.66h-5v-28.98c5.18.7,12.65-.96,17.49,0ZM757.72,209.94c-1.48-1.49-10.27-1.88-11.82-.8-1.39.96-1.4,9.32-.5,10.62,1.48,2.12,10.01,1.09,12.11-1.01s2.04-6.98.21-8.81Z"/>
      <path class="cls-1" d="M336.17,204.84l12.12,28.83c-7.21,1.53-5.37-3.44-7.48-6-1.15-1.39-12.94-1.48-14.84-.83-3.19,1.09-1.47,9.1-8.65,6.83l12.1-28.85,6.75.02ZM338.3,222.69l-5.49-12.98-5.5,12.98h10.98Z"/>
      <path class="cls-1" d="M814.8,204.83l12.1,28.85c-7.21,1.53-5.37-3.44-7.48-6-1.15-1.39-12.94-1.48-14.84-.83-3.19,1.09-1.47,9.1-8.65,6.83l12.12-28.83,6.75-.02ZM816.9,222.69l-5.49-12.98-5.5,12.98h10.98Z"/>
      <path class="cls-1" d="M601.93,204.88c1.43.89,10.3,25.51,13.15,28.8-7.94,2.85-6.15-5.62-9.65-6.82-1.24-.43-13.54-.39-14.17,0-1.44.9-1.44,9.3-8.15,6.82l12.46-28c1.16-1.19,5.19-1.54,6.37-.8ZM600.07,210.71c-1.54-1.5-1.72.51-2.23,1.28-1.96,3.03-3.23,7.38-4.75,10.69h10.99c-.32-1.72-3.55-11.54-4.01-11.98Z"/>
      <path class="cls-1" d="M705,204.71c.14.14.2,4,0,4h-15.99v7.99h13.99c.2,0,.2,4,0,4h-13.99v8.99h16.99c.2,0,.2,4,0,4h-21.98v-28.98c2.91.57,20.25-.76,20.98,0Z"/>
      <path class="cls-1" d="M883.85,204.71c.14.14.2,4,0,4h-15.99v7.99h13.99c.2,0,.2,4,0,4h-13.99v8.99h16.99c.2,0,.2,4,0,4h-21.98v-28.98c2.91.57,20.25-.76,20.98,0Z"/>
      <path class="cls-1" d="M412.24,209.71c-1.17.93-14.28-6.44-15.07,2.52-.49,5.52,12.1,3.75,15.55,8.49,8.89,12.25-16.49,17.21-21.03,9.97-.5-.8.44-3.86.59-3.99.72-.62,16.18,8.01,17.04-.52.72-7.06-18.63-3.37-18.04-13.89.51-8.89,15.42-10.67,20.99-6.07,1.13.93.11,3.38-.03,3.49Z"/>
      <path class="cls-1" d="M526.15,207.72c-3.8,6.59-4.03,1.8-8.55,1.04-18.41-3.1-16.81,22.01-2.06,20.89,2.9-.22,6.04-3.33,7.9-2.85,5.59,1.45-.38,5.9-4.01,6.65-31.46,6.48-23.68-44.5,6.72-25.73Z"/>
      <path class="cls-1" d="M459.2,209.69c-4.66,3.42-5.48-.92-9.93-1.54-11.58-1.62-16.56,14.54-6.96,19.96,8.05,4.54,11.54-2,14.19-1.3,5.92,1.56-.95,6.2-4.85,6.81-25.46,4.03-25.35-31.17-2.97-29.95,2,.11,12.43,3.46,10.52,6.02Z"/>
      <path class="cls-1" d="M842.67,203.94c4.43-.47,10.38.5,13.15,4.38-2.36,6.5-4.61.82-9.12-.02-10.32-1.92-17.69,12.52-8.15,19.23,7.89,5.55,11.95-1.24,14.69-.68,5.51,1.13-.37,5.83-4.08,6.59-23.51,4.87-27.01-27.31-6.48-29.51Z"/>
      <path class="cls-1" d="M353.13,204.87c.67.42,6.17,12.15,7.65,13.82,4.5-4.47,5.59-15.49,13.49-13.97-4.68,9.74-13.26,17.24-10.99,28.97h-5.01c2.27-11.66-6.04-18.99-10.98-28.49.95-.83,5.08-.8,5.83-.33Z"/>
      <path class="cls-1" d="M734.97,204.71c3.33,6.71-9.99,3.16-9.99,4v24.98h-5v-24.98c0-.84-13.32,2.71-9.99-4h24.98Z"/>
      <path class="cls-1" d="M245.38,204.71c-.73,6.37-4.92,3.48-9.99,4v24.98h-5v-24.98c0-.84-13.32,2.71-9.99-4h24.98Z"/>
      <path class="cls-1" d="M776.94,204.71v24.98h14.99c.2,0,.2,4,0,4h-19.98v-28.98h5Z"/>
      <path class="cls-1" d="M383.16,214.59c-.59.5-2.81-.06-3.89.11,4.65-5.17-4.17-10.19,3.51-12.75,4.4.34,1.07,12.06.37,12.64Z"/>
    </g>
  </g>
  <rect class="cls-1" x="620.07" y="204.39" width="14.49" height="2.43"/>
  <rect class="cls-1" x="468.93" y="213.11" width="2.23" height="4.82"/>
</svg>