<svg width="48" height="48" viewBox="0 0 48 48" fill="none" xmlns="http://www.w3.org/2000/svg">
<g clip-path="url(#clip0_492_2)">
<path d="M24 0C10.7664 0 0 10.7665 0 24.0001C0 37.2336 10.7664 48 24 48C37.2336 48 48 37.2336 48 24.0001C48 10.7665 37.2336 0 24 0ZM24 43.6364C13.1724 43.6364 4.36364 34.8275 4.36364 24.0001C4.36364 13.1727 13.1724 4.36364 24 4.36364C34.8276 4.36364 43.6364 13.1727 43.6364 24.0001C43.6364 34.8275 34.8275 43.6364 24 43.6364Z" fill="#453728"/>
<path d="M26.9968 13.7301C26.1448 12.8782 24.7633 12.8782 23.9112 13.7301C23.0592 14.5821 23.0592 15.9636 23.9112 16.8157L28.9141 21.8186L13.8174 21.8194C12.6125 21.8194 11.6356 22.7965 11.6357 24.0014C11.6357 25.2064 12.6128 26.1831 13.8177 26.1831L28.9136 26.1822L23.9111 31.1848C23.059 32.0367 23.059 33.4183 23.9111 34.2703C24.3371 34.6964 24.8954 34.9095 25.4538 34.9095C26.0122 34.9095 26.5706 34.6964 26.9965 34.2703L35.7237 25.5429C36.1333 25.1335 36.3632 24.5787 36.3632 24C36.3632 23.4212 36.1332 22.8663 35.724 22.4573L26.9968 13.7301Z" fill="#453728"/>
</g>
<defs>
<clipPath id="clip0_492_2">
<rect width="48" height="48" fill="white"/>
</clipPath>
</defs>
</svg>
