<svg width="48" height="48" viewBox="0 0 48 48" fill="none" xmlns="http://www.w3.org/2000/svg">
<circle cx="24" cy="24" r="24" fill="#453728"/>
<path d="M27.361 13.6389C26.5091 12.787 25.1276 12.787 24.2755 13.6389C23.4234 14.4909 23.4234 15.8724 24.2755 16.7245L29.2784 21.7274L14.1817 21.7283C12.9767 21.7283 11.9999 22.7053 12 23.9102C12 25.1152 12.977 26.0919 14.182 26.0919L29.2778 26.091L24.2753 31.0936C23.4233 31.9456 23.4233 33.3271 24.2753 34.1792C24.7014 34.6052 25.2596 34.8183 25.818 34.8183C26.3764 34.8183 26.9348 34.6052 27.3607 34.1792L36.088 25.4517C36.4976 25.0423 36.7274 24.4875 36.7274 23.9088C36.7274 23.33 36.4975 22.7751 36.0883 22.3661L27.361 13.6389Z" fill="#FFF2E6"/>
</svg>
