<svg width="16" height="16" viewBox="0 0 16 16" fill="none" xmlns="http://www.w3.org/2000/svg">
<path d="M7.99961 1.6001C4.4713 1.6001 1.59961 4.47179 1.59961 8.0001C1.59961 11.5284 4.4713 14.4001 7.99961 14.4001C11.5279 14.4001 14.3996 11.5284 14.3996 8.0001C14.3996 4.47179 11.5279 1.6001 7.99961 1.6001ZM7.99961 2.66676C8.096 2.66676 8.23304 2.71775 8.42565 2.94176C8.61826 3.1658 8.82876 3.54458 9.0069 4.03447C9.12811 4.36778 9.22845 4.76627 9.31732 5.18968C8.90834 5.26865 8.46704 5.31885 7.99961 5.31885C7.53189 5.31885 7.09086 5.26874 6.6819 5.18968C6.77077 4.76627 6.87111 4.36778 6.99232 4.03447C7.17046 3.54458 7.38096 3.1658 7.57357 2.94176C7.76618 2.71773 7.90322 2.66676 7.99961 2.66676ZM9.6944 2.94801C10.3678 3.17437 10.9826 3.52649 11.5059 3.98343C11.3953 4.23507 11.1266 4.50889 10.6548 4.75426C10.5621 4.80247 10.4504 4.84308 10.3454 4.88656C10.2503 4.45136 10.1421 4.03605 10.009 3.66989C9.91408 3.40889 9.80912 3.16933 9.6944 2.94801ZM6.30378 2.94906C6.1893 3.17005 6.08497 3.40937 5.99023 3.66989C5.8572 4.03572 5.74996 4.45076 5.65482 4.88551C5.55009 4.84209 5.43802 4.80241 5.34544 4.75426C4.87361 4.50889 4.60493 4.23507 4.4944 3.98343C5.01723 3.527 5.63127 3.17549 6.30378 2.94906ZM3.74128 4.79385C4.01103 5.15928 4.40234 5.46533 4.85378 5.7001C5.04494 5.79951 5.25241 5.88656 5.46836 5.96572C5.40639 6.44327 5.36825 6.94547 5.35169 7.46676H2.69232C2.79111 6.4669 3.16947 5.55289 3.74128 4.79385ZM12.259 4.79489C12.8303 5.5537 13.2082 6.46742 13.3069 7.46676H10.6475C10.631 6.94547 10.5928 6.44327 10.5309 5.96572C10.7469 5.88655 10.9553 5.79952 11.1465 5.7001C11.5976 5.46548 11.9892 5.16001 12.259 4.79489ZM6.51211 6.24176C6.98153 6.32991 7.47699 6.38551 7.99961 6.38551C8.5218 6.38551 9.01781 6.33081 9.48711 6.24281C9.534 6.63358 9.56491 7.04141 9.57982 7.46676H6.4194C6.43432 7.04104 6.46515 6.63284 6.51211 6.24176ZM2.69232 8.53343H5.35169C5.36782 9.04131 5.40491 9.53045 5.46419 9.99697C5.24989 10.0757 5.04355 10.1618 4.85378 10.2605C4.39431 10.4995 3.99693 10.8125 3.72669 11.1866C3.16322 10.4314 2.79026 9.52466 2.69232 8.53343ZM6.4194 8.53343H9.57982C9.5654 8.94486 9.53674 9.33958 9.49232 9.71885C9.02192 9.63021 8.52457 9.57516 8.00065 9.5751H7.99961C7.47569 9.57516 6.97857 9.63021 6.50794 9.71885C6.46351 9.33955 6.43382 8.9449 6.4194 8.53343ZM10.6475 8.53343H13.3069C13.209 9.52466 12.836 10.4314 12.2725 11.1866C12.0023 10.8125 11.6049 10.4995 11.1454 10.2605C10.9557 10.1618 10.7492 10.0757 10.535 9.99697C10.5943 9.53045 10.6314 9.04131 10.6475 8.53343ZM7.99961 10.6418C8.47003 10.6418 8.91373 10.6921 9.32461 10.772C9.23423 11.2104 9.13171 11.6225 9.0069 11.9657C8.82876 12.4556 8.61826 12.8344 8.42565 13.0584C8.23304 13.2825 8.096 13.3334 7.99961 13.3334C7.90322 13.3334 7.76618 13.2824 7.57357 13.0584C7.38096 12.8344 7.17046 12.4556 6.99232 11.9657C6.86751 11.6225 6.76499 11.2104 6.67461 10.772C7.08551 10.6922 7.52948 10.6418 7.99961 10.6418ZM5.64753 11.0772C5.74418 11.5259 5.85347 11.9542 5.99023 12.3303C6.08497 12.5908 6.1893 12.8302 6.30378 13.0511C5.62517 12.8227 5.00569 12.4667 4.47982 12.0043C4.58352 11.7453 4.85603 11.4603 5.3444 11.2063C5.43517 11.1591 5.54503 11.1199 5.64753 11.0772ZM10.3517 11.0782C10.4537 11.1207 10.5634 11.1593 10.6538 11.2063C11.1428 11.4607 11.415 11.7461 11.5184 12.0053C10.9926 12.4674 10.3738 12.8228 9.69544 13.0511C9.80992 12.8302 9.91425 12.5908 10.009 12.3303C10.1457 11.9545 10.2551 11.5266 10.3517 11.0782Z" fill="white"/>
</svg>
