<svg xmlns="http://www.w3.org/2000/svg" version="1.1" xmlns:xlink="http://www.w3.org/1999/xlink" width="512" height="512" x="0" y="0" viewBox="0 0 24 24" style="enable-background:new 0 0 512 512" xml:space="preserve"><g><path fill="#ffffff" d="M21 19v-1.646a2 2 0 0 0-1.257-1.857l-2.034-.814a2 2 0 0 0-2.532.963L15 16s-2.5-.5-4.5-2.5S8 9 8 9l.354-.177a2 2 0 0 0 .963-2.532l-.814-2.034A2 2 0 0 0 6.646 3H5a2 2 0 0 0-2 2c0 8.837 7.163 16 16 16a2 2 0 0 0 2-2z" opacity="1" data-original="#000000"></path></g></svg>