<?xml version="1.0" encoding="UTF-8"?>
<svg id="Capa_1" data-name="Capa 1" xmlns="http://www.w3.org/2000/svg" viewBox="0 0 179.73 179.73">
  <defs>
    <style>
      .cls-1 {
        fill: #e5e5e5;
      }

      .cls-2 {
        fill: #fff;
      }

      .cls-3 {
        fill: #161616;
      }
    </style>
  </defs>
  <path class="cls-1" d="M179.73,89.86c0,20.36-6.78,39.15-18.2,54.22-1.18,1.56-2.41,3.09-3.69,4.56-16.48,19.04-40.82,31.09-67.98,31.09C40.23,179.73,0,139.49,0,89.86S40.23,0,89.86,0s89.87,40.23,89.87,89.86Z"/>
  <circle class="cls-2" cx="89.87" cy="89.87" r="68.16"/>
  <path class="cls-3" d="M161.53,144.08c-1.18,1.56-2.41,3.09-3.69,4.56-7.49-1.28-15.18-3.96-23.03-7.55-1.52-.69-3.05-1.41-4.58-2.17-25.25-12.23-45.68-23.91-70.25-2.63,6.62-8.52,16.21-14.55,26.82-15.89.1-7.42.19-28.34.19-44.79,0-18.97-.12-30.6-.24-33.9-.12-3.67-.98-5.02-3.8-6l.13-.61c1.71.24,4.65.37,7.09.37s5.27-.13,6.98-.37l.12.61c-2.81.98-3.67,2.33-3.79,5.88-.12,3.42-.25,15.05-.25,34.02,0,15.09.08,33.63.24,44.58.61.04,1.22.07,1.83.15,15.95,1.68,29.81,9.82,44.15,16.27,3.62,1.63,7.26,3.15,10.98,4.43,3.82,1.42,7.51,2.43,11.1,3.04Z"/>
</svg>