<?xml version="1.0" encoding="UTF-8"?>
<svg id="Capa_1" data-name="Capa 1" xmlns="http://www.w3.org/2000/svg" viewBox="0 0 419.76 193.35">
  <defs>
    <style>
      .cls-1 {
        fill: #161616;
      }
    </style>
  </defs>
  <path class="cls-1" d="M76.6,114.82l.12.61c1.71-.24,4.65-.37,7.1-.37h46.18c.86-2.33,2.57-6,3.67-7.83l-.61-.49c-7.22,5.51-21.1,6.36-34.07,6.36-4.04,0-7.95,0-11.87-.12-.12-5.26-.24-19.09-.24-38.18,29.74,0,31.62.37,33.21,3.92l.49-.12c-.24-1.71-.37-2.94-.37-4.89s.12-3.06.37-4.77l-.49-.12c-1.47,3.18-3.48,3.92-33.21,3.92,0-16.76.12-30.47.24-35.61,4.16-.24,8.32-.37,12.36-.37,10.65,0,21.83.86,27.83,5.87l.61-.49c-.86-2.33-1.59-5.02-2.08-7.34h-42.02c-2.45,0-5.38-.12-7.1-.37l-.12.61c2.81.98,3.67,2.33,3.79,6,.12,3.3.24,14.93.24,33.9s-.12,30.59-.24,33.9c-.12,3.67-.98,5.02-3.79,6Z"/>
  <path class="cls-1" d="M177.45,32.7c-23.62,0-43.2,16.52-43.2,42.22s19.58,42.22,43.2,42.22,43.07-16.64,43.07-42.22-19.58-42.22-43.07-42.22ZM177.45,114.57c-20.07,0-36.22-14.93-36.22-39.65s16.15-39.65,36.22-39.65,36.22,14.93,36.22,39.65-16.28,39.65-36.22,39.65Z"/>
  <path class="cls-1" d="M307.09,34.78c-.49,2.45-1.1,5.14-1.96,7.46l.61.49c7.1-4.77,14.68-6,27.66-6h2.81v38.18c0,18.97-.12,30.59-.24,33.9-.12,3.67-.98,5.02-3.79,6l.12.61c1.71-.24,4.65-.37,6.97-.37,2.57,0,5.38.12,7.1.37l.12-.61c-2.81-.98-3.67-2.33-3.79-6-.12-3.3-.25-14.93-.25-33.9v-38.18h2.69c12.97,0,20.56,1.22,27.78,6l.61-.49c-.86-2.33-1.59-5.02-2.08-7.46h-64.37Z"/>
  <path class="cls-1" d="M395.39,121.89c-.12-3.3-.24-28-.24-46.97s.12-30.59.24-34.02c.12-3.55.98-4.89,3.79-5.87l-.12-.61c-1.71.24-4.53.37-6.98.37s-5.38-.12-7.1-.37l-.12.61c2.81.98,3.67,2.33,3.79,6,.12,3.3.24,14.93.24,33.9s-.12,43.66-.24,46.97c-.12,3.67-.98,5.02-3.79,6l.12.61c1.71-.24,4.65-.37,7.1-.37s5.26.12,6.98.37l.12-.61c-2.81-.98-3.67-2.33-3.79-6Z"/>
  <path class="cls-1" d="M324.85,145.32c-13.31-5.01-24.71-17.12-35.5-32.02-.29-8.6-.48-22.64-.48-39.29,0-19.09.49-30.59.74-34.88.24-3.55,2.2-4.53,3.79-5.01l-.12-.62c-1.71.25-3.67.37-5.51.37-1.95,0-3.91-.12-5.63-.37l-.12.62c1.59.48,3.55,1.46,3.8,5.01.24,4.29.73,15.79.73,34.88,0,4.93.01,9.13.03,12.79.03,5.96.07,10.51.08,14.5,0,.93,0,1.82,0,2.69h0s0,5.52,0,5.52c-24.7-35.4-46.8-83.74-82.56-92.15,9.19,3.56,17.38,9.9,24.95,17.95.52,1.86.74,3.99.8,5.73.13,3.31.25,14.81.25,33.9s-.49,30.59-.74,34.87c-.24,3.55-2.2,4.53-3.79,5.02l.12.61c1.72-.24,3.67-.36,5.63-.36,1.84,0,3.79.12,5.51.36l.12-.61c-1.59-.49-3.55-1.47-3.79-5.02-.24-4.06-.69-14.74-.73-32.03-.01-.93-.01-1.87-.01-2.84,0-18.48,0-26.56-.12-34.51.04.05.09.11.13.16v-1.53c30.69,35.41,51.88,97.39,91.53,109.08,8.5,2.32,17.69,1.64,25.78-1.64-8.24,1.93-16.98,1.81-24.88-1.17Z"/>
  <path class="cls-1" d="M102.13,140.36c-18.48-6.36-35.17-18.61-55.14-20.71-.61-.07-1.22-.11-1.83-.15-.16-10.95-.23-29.49-.23-44.59,0-18.97.12-30.59.24-34.02.12-3.55.98-4.89,3.79-5.87l-.12-.61c-1.71.24-4.53.37-6.98.37s-5.38-.12-7.1-.37l-.12.61c2.81.98,3.67,2.33,3.79,6,.12,3.3.24,14.93.24,33.9,0,16.46-.09,37.38-.2,44.79-10.61,1.34-20.2,7.37-26.81,15.89,24.57-21.28,45-9.6,70.25,2.63,26.68,13.17,51.65,17.35,73.26-7.35-16.52,13.16-33.01,16.88-53.06,9.47Z"/>
  <path class="cls-1" d="M204.59,169.14l-5.89-13.75h-1.56l-5.48,13.01c-.36.89-.67,1.55-.92,1.98-.26.44-.53.73-.82.87-.29.15-.67.22-1.13.22v.87h5.51v-.87c-.6,0-1.03-.05-1.31-.17s-.41-.35-.41-.73c0-.24.03-.47.1-.69.07-.22.14-.44.21-.64l1.01-2.43h6.36l.88,2.05c.15.38.27.7.35.99.08.28.12.52.12.7,0,.29-.09.5-.27.63-.18.13-.4.21-.67.24-.27.03-.52.05-.76.05v.87h7.3v-.87c-.65,0-1.15-.18-1.51-.54-.36-.36-.73-.96-1.1-1.79ZM197.19,158.77l2.66,6.92h-5.51l2.78-6.92h.08Z"/>
  <path class="cls-1" d="M229.78,169.3c-.23.47-.52.83-.86,1.09-.34.26-.81.43-1.4.54s-1.35.15-2.29.15h-3.23v-6.84h2.77c.82,0,1.43.05,1.83.15s.67.32.81.65c.14.33.21.86.21,1.57h.95v-5.94h-.95c0,.68-.07,1.2-.21,1.55s-.41.58-.81.7-1.01.18-1.83.18h-2.77v-6.3h3.64c1.02,0,1.81.08,2.34.24s.92.46,1.15.9.41,1.06.53,1.88h.97l-.15-4.33h-13.73v.87c.7,0,1.22.06,1.56.18.34.12.57.35.69.69.12.34.18.84.18,1.49v10.5c0,.67-.07,1.16-.21,1.47-.14.32-.38.52-.73.62s-.85.14-1.5.14v.87h13.98l.69-4.84h-.95c-.24.73-.47,1.34-.7,1.81Z"/>
  <path class="cls-1" d="M251.37,164.46c-.47-.42-.99-.79-1.56-1.11-.57-.32-1.14-.64-1.7-.95-.65-.36-1.27-.71-1.86-1.05-.59-.34-1.06-.73-1.42-1.18-.36-.44-.54-.98-.54-1.61,0-.75.23-1.31.7-1.69.47-.38,1.15-.56,2.04-.56,1.2-.02,2.1.3,2.7.96s1.09,1.72,1.45,3.19h.9l-.15-5.2h-.77c-.07.26-.17.44-.31.54s-.3.15-.49.15c-.21,0-.44-.06-.69-.19-.26-.13-.6-.25-1.02-.37-.43-.12-1.01-.18-1.74-.18-.97,0-1.84.16-2.61.49-.77.32-1.38.79-1.83,1.41-.45.62-.68,1.38-.68,2.31s.2,1.72.6,2.36.93,1.17,1.58,1.6c.65.43,1.33.85,2.05,1.24.68.38,1.34.75,1.97,1.11.63.37,1.14.79,1.54,1.28.39.49.59,1.11.59,1.86,0,.61-.14,1.11-.41,1.49-.27.38-.64.65-1.11.82-.47.17-1.01.26-1.63.26-.8,0-1.49-.11-2.05-.33s-1.04-.64-1.43-1.25c-.39-.62-.73-1.5-1.02-2.66h-.95l.23,5.53h.9c.02-.24.09-.44.22-.59.13-.15.29-.23.47-.23s.43.06.72.19c.29.13.7.26,1.22.38.52.13,1.22.19,2.09.19,1.08,0,2.04-.18,2.88-.54.84-.36,1.51-.89,1.98-1.59.48-.7.72-1.55.72-2.56,0-.77-.14-1.44-.42-2.01-.28-.57-.66-1.07-1.13-1.49Z"/>
  <path class="cls-1" d="M262.63,155.51l-.28,4.76h.95c.19-.94.38-1.66.59-2.16.21-.5.54-.86,1.01-1.06s1.17-.31,2.11-.31h1.49v12.14c0,.77-.06,1.34-.18,1.7-.12.37-.35.61-.7.72-.35.11-.89.17-1.63.17v.87h7.86v-.87c-.73,0-1.28-.05-1.64-.17s-.59-.35-.7-.72c-.11-.37-.17-.93-.17-1.7v-12.14h1.46c.96,0,1.67.1,2.13.31s.79.56,1,1.06c.21.5.4,1.23.59,2.16h.95l-.21-4.76h-14.62Z"/>
  <path class="cls-1" d="M298.15,156.38c.77,0,1.33.08,1.68.23.35.15.57.42.65.81.08.38.13.91.13,1.58v4.17h-8.09v-4.17c0-.67.04-1.19.13-1.58.08-.38.3-.65.65-.81.35-.15.92-.23,1.7-.23v-.87h-7.73v.87c.77,0,1.33.08,1.68.23.35.15.56.42.64.81.08.38.12.91.12,1.58v9.89c0,.75-.05,1.32-.14,1.69-.09.38-.31.62-.65.73-.34.11-.89.17-1.64.17v.87h7.71v-.87c-.75,0-1.3-.06-1.65-.18-.35-.12-.57-.36-.67-.73-.09-.37-.14-.93-.14-1.68v-4.58h8.09v4.58c0,.73-.04,1.29-.13,1.67-.09.38-.3.62-.65.74-.35.12-.91.18-1.68.18v.87h7.76v-.87c-.75,0-1.31-.06-1.66-.18-.36-.12-.58-.37-.68-.74-.09-.38-.14-.93-.14-1.67v-9.89c0-.68.04-1.21.12-1.59.08-.38.29-.64.64-.79.35-.15.93-.23,1.73-.23v-.87h-7.76v.87Z"/>
  <path class="cls-1" d="M329.2,169.3c-.23.47-.52.83-.86,1.09-.34.26-.81.43-1.4.54s-1.35.15-2.29.15h-3.23v-6.84h2.77c.82,0,1.43.05,1.83.15s.67.32.81.65c.14.33.21.86.21,1.57h.95v-5.94h-.95c0,.68-.07,1.2-.21,1.55s-.41.58-.81.7-1.01.18-1.83.18h-2.77v-6.3h3.64c1.02,0,1.81.08,2.34.24s.92.46,1.15.9.41,1.06.53,1.88h.97l-.15-4.33h-13.73v.87c.7,0,1.22.06,1.56.18.34.12.57.35.69.69.12.34.18.84.18,1.49v10.5c0,.67-.07,1.16-.21,1.47-.14.32-.38.52-.73.62s-.85.14-1.5.14v.87h13.98l.69-4.84h-.95c-.24.73-.47,1.34-.7,1.81Z"/>
  <path class="cls-1" d="M340.33,155.51l-.28,4.76h.95c.19-.94.38-1.66.59-2.16.21-.5.54-.86,1.01-1.06s1.17-.31,2.11-.31h1.49v12.14c0,.77-.06,1.34-.18,1.7-.12.37-.36.61-.71.72s-.89.17-1.63.17v.87h7.86v-.87c-.73,0-1.28-.05-1.64-.17-.36-.11-.59-.35-.71-.72-.11-.37-.17-.93-.17-1.7v-12.14h1.46c.96,0,1.67.1,2.13.31s.79.56,1,1.06c.21.5.4,1.23.59,2.16h.95l-.21-4.76h-14.62Z"/>
  <path class="cls-1" d="M364.92,156.38c.8,0,1.38.08,1.72.23.34.15.55.42.64.81.09.38.13.91.13,1.58v9.89c0,.73-.05,1.29-.14,1.65s-.32.61-.67.74c-.35.13-.91.19-1.68.19v.87h7.73v-.87c-.73,0-1.28-.06-1.62-.19-.35-.13-.57-.38-.67-.74-.1-.37-.14-.92-.14-1.65v-9.89c0-.67.04-1.19.12-1.58.08-.38.29-.65.64-.81.35-.15.92-.23,1.7-.23v-.87h-7.76v.87Z"/>
  <path class="cls-1" d="M395.34,170.09c-.85.44-1.89.67-3.1.67s-2.23-.25-3.11-.74c-.88-.5-1.56-1.27-2.04-2.32-.48-1.05-.72-2.41-.72-4.08,0-2.27.46-4.04,1.38-5.31.92-1.27,2.26-1.91,4.02-1.91,1.31,0,2.4.39,3.27,1.18.86.79,1.44,2,1.73,3.64h.97v-5.99h-.87c-.12.24-.23.45-.33.63-.1.18-.27.27-.51.27-.22,0-.49-.08-.81-.23-.32-.15-.74-.3-1.28-.45-.54-.15-1.26-.22-2.16-.22-1.66,0-3.12.34-4.4,1.01-1.28.67-2.29,1.66-3.01,2.97-.73,1.31-1.09,2.91-1.09,4.8,0,1.66.3,3.14.9,4.44.6,1.31,1.49,2.33,2.69,3.07,1.2.74,2.69,1.11,4.48,1.11,1.2,0,2.23-.17,3.1-.5s1.62-.79,2.25-1.36c.63-.57,1.2-1.22,1.69-1.93l-.67-.59c-.73.79-1.53,1.4-2.38,1.84Z"/>
</svg>